<svg width="15" height="15" viewBox="0 0 15 15" fill="none" xmlns="http://www.w3.org/2000/svg">
<path d="M8.24506 0.934082V8.34424L10.8427 5.74658L11.3076 5.28174L12.2372 6.18408L11.7724 6.64893L8.05365 10.3677L7.58881 10.8325L7.12396 10.3677L3.40521 6.64893L2.94037 6.18408L3.87006 5.28174L4.3349 5.74658L6.93256 8.34424V0.934082V0.277832H8.24506V0.934082ZM4.08881 8.59033L5.40131 9.90283H1.90131V12.9653H13.2763V9.90283H9.74896L11.0615 8.59033H13.2763H14.5888V9.90283V12.9653V14.2778H13.2763H1.90131H0.588806V12.9653V9.90283V8.59033H1.90131H4.08881ZM12.4013 11.4341C12.4013 11.8169 12.1005 12.0903 11.7451 12.0903C11.3622 12.0903 11.0888 11.8169 11.0888 11.4341C11.0888 11.0786 11.3622 10.7778 11.7451 10.7778C12.1005 10.7778 12.4013 11.0786 12.4013 11.4341Z" fill="#282928"/>
</svg>
