<svg width="17" height="15" viewBox="0 0 17 15" fill="none" xmlns="http://www.w3.org/2000/svg">
<path d="M4.33882 0.527832H12.8388H13.3701L13.5263 1.05908L14.8701 5.02783H15.0888H16.5888V6.52783V10.5278V12.0278V14.5278H15.0888V12.0278H2.08882V14.5278H0.588821V12.0278V10.5278V6.52783V5.02783H2.08882H2.27632L3.62007 1.05908L3.77632 0.527832H4.33882ZM13.2763 5.02783L12.2763 2.02783H4.87007L3.87007 5.02783H13.2763ZM15.0888 6.52783H2.08882V10.5278H15.0888V6.52783ZM5.08882 8.52783C5.08882 9.09033 4.62007 9.52783 4.08882 9.52783C3.52632 9.52783 3.08882 9.09033 3.08882 8.52783C3.08882 7.99658 3.52632 7.52783 4.08882 7.52783C4.62007 7.52783 5.08882 7.99658 5.08882 8.52783ZM13.0888 9.52783C12.5263 9.52783 12.0888 9.09033 12.0888 8.52783C12.0888 7.99658 12.5263 7.52783 13.0888 7.52783C13.6201 7.52783 14.0888 7.99658 14.0888 8.52783C14.0888 9.09033 13.6201 9.52783 13.0888 9.52783Z" fill="#282928"/>
</svg>
