<svg width="17" height="17" viewBox="0 0 17 17" fill="none" xmlns="http://www.w3.org/2000/svg">
<path d="M11.0888 1.02783V3.02783V3.52783H10.0888V3.02783V1.02783V0.527832H11.0888V1.02783ZM7.99507 1.27783L8.99507 2.77783L9.27632 3.18408L8.43257 3.74658L8.15132 3.30908L7.15132 1.80908L6.87007 1.40283L7.71382 0.840332L7.99507 1.27783ZM5.55757 3.49658L6.08882 3.99658L8.58882 6.30908V5.77783V5.02783H9.33882H11.8388H12.5888V5.77783V10.8403C12.5888 13.9966 10.0263 16.5278 6.87007 16.5278C6.18257 16.5278 5.49507 16.4653 4.80757 16.2153C4.12007 15.9653 3.49507 15.5278 2.83882 14.8716L2.33882 14.3403L1.80757 13.8091L1.30757 13.3091H1.27632L0.557571 12.5591L0.0263214 12.0278L0.557571 11.4966L1.52632 10.5278L0.557571 9.55908L0.0263214 9.02783L0.557571 8.49658L1.52632 7.52783L1.05757 7.05908L0.526321 6.52783L1.05757 5.99658L2.55757 4.49658L3.08882 3.96533L3.62007 4.49658L4.08882 4.96533L5.05757 3.99658L5.55757 3.49658ZM3.12007 6.99658L5.87007 9.74658L6.40132 10.2778L5.33882 11.3403L4.80757 10.8091L2.58882 8.59033L2.12007 9.02783L2.58882 9.49658L3.12007 10.0278L4.37007 11.2778L4.90132 11.8091L3.83882 12.8403L3.30757 12.3091L2.58882 11.5903L2.12007 12.0278L2.33882 12.2466L2.83882 12.7466L3.37007 13.2778L3.90132 13.8091C4.43257 14.3403 4.90132 14.6528 5.33882 14.8091C5.77632 14.9966 6.27632 15.0278 6.87007 15.0278C9.18257 15.0278 11.0888 13.1528 11.0888 10.8403V6.52783H10.0888V8.02783V8.65283L9.15132 8.90283L8.80757 8.59033L5.58882 5.59033L5.12007 6.02783L7.33882 8.24658L7.87007 8.77783L6.83882 9.84033L6.30757 9.30908L3.55757 6.55908L3.08882 6.09033L2.62007 6.52783L3.08882 6.99658H3.12007ZM10.8701 16.5278C10.7138 16.5278 10.5576 16.5278 10.4013 16.5278C11.1513 16.0903 11.7763 15.4966 12.2763 14.8091C13.9013 14.2153 15.0888 12.6841 15.0888 10.8403V6.52783H13.5888V5.77783V5.02783H15.8388H16.5888V5.77783V10.8403C16.5888 13.9966 14.0263 16.5278 10.8701 16.5278ZM13.4326 0.840332L14.2763 1.40283L13.9951 1.80908L12.9951 3.30908L12.7138 3.74658L11.8701 3.18408L12.1513 2.77783L13.1513 1.27783L13.4326 0.840332Z" fill="#282928"/>
</svg>
