<svg width="19" height="15" viewBox="0 0 19 15" fill="none" xmlns="http://www.w3.org/2000/svg">
<path d="M5.08882 13.0278H14.0888V2.02783H5.08882V13.0278ZM3.58882 13.0278V2.02783H2.08882V13.0278H3.58882ZM4.33882 0.527832H5.08882H14.0888H14.8388H15.5888H17.0888H18.5888V2.02783V13.0278V14.5278H17.0888H15.5888H14.8388H14.0888H5.08882H4.33882H3.58882H2.08882H0.588821V13.0278V2.02783V0.527832H2.08882H3.58882H4.33882ZM17.0888 13.0278V2.02783H15.5888V13.0278H17.0888ZM8.58882 4.52783H10.5888V6.52783H12.5888V8.52783H10.5888V10.5278H8.58882V8.52783H6.58882V6.52783H8.58882V4.52783Z" fill="#282928"/>
</svg>
