<svg width="15" height="17" viewBox="0 0 15 17" fill="none" xmlns="http://www.w3.org/2000/svg">
<path d="M7.58882 7.02783C8.46382 7.02783 9.27632 6.55908 9.74507 5.77783C10.1826 5.02783 10.1826 4.05908 9.74507 3.27783C9.27632 2.52783 8.46382 2.02783 7.58882 2.02783C6.68257 2.02783 5.87007 2.52783 5.40132 3.27783C4.96382 4.05908 4.96382 5.02783 5.40132 5.77783C5.87007 6.55908 6.68257 7.02783 7.58882 7.02783ZM11.5888 4.52783C11.5888 5.96533 10.8076 7.27783 9.58882 7.99658C8.33882 8.71533 6.80757 8.71533 5.58882 7.99658C4.33882 7.27783 3.58882 5.96533 3.58882 4.52783C3.58882 3.12158 4.33882 1.80908 5.58882 1.09033C6.80757 0.371582 8.33882 0.371582 9.58882 1.09033C10.8076 1.80908 11.5888 3.12158 11.5888 4.52783ZM7.12007 11.7778L6.08882 10.0278H7.58882H9.08882L8.02632 11.7778L8.52632 13.6216L10.0888 10.5278H12.5888L14.0888 15.0278L14.5888 16.5278H12.9951H9.33882H8.74507H6.40132H5.83882H2.15132H0.588821L1.08882 15.0278L2.58882 10.5278H5.08882L6.62007 13.6216L7.12007 11.7778ZM12.4951 15.0278L11.4951 12.0278H10.9951L9.49507 15.0278H12.4951ZM4.15132 12.0278H3.65132L2.65132 15.0278H5.65132L4.15132 12.0278Z" fill="#282928"/>
</svg>
